<svg width="14" height="14" viewBox="0 0 14 14" fill="none" xmlns="http://www.w3.org/2000/svg">
<g clip-path="url(#clip0_2058_4766)">
<path fill-rule="evenodd" clip-rule="evenodd" d="M9.33333 1.75C9.48804 1.75 9.63642 1.81146 9.74581 1.92085C9.85521 2.03025 9.91667 2.17862 9.91667 2.33333V2.91667H11.0833C11.3928 2.91667 11.6895 3.03958 11.9083 3.25838C12.1271 3.47717 12.25 3.77391 12.25 4.08333V11.0833C12.25 11.3928 12.1271 11.6895 11.9083 11.9083C11.6895 12.1271 11.3928 12.25 11.0833 12.25H2.91667C2.60725 12.25 2.3105 12.1271 2.09171 11.9083C1.87292 11.6895 1.75 11.3928 1.75 11.0833V4.08333C1.75 3.77391 1.87292 3.47717 2.09171 3.25838C2.3105 3.03958 2.60725 2.91667 2.91667 2.91667H4.08333V2.33333C4.08333 2.17862 4.14479 2.03025 4.25419 1.92085C4.36358 1.81146 4.51196 1.75 4.66667 1.75C4.82138 1.75 4.96975 1.81146 5.07915 1.92085C5.18854 2.03025 5.25 2.17862 5.25 2.33333V2.91667H8.75V2.33333C8.75 2.17862 8.81146 2.03025 8.92085 1.92085C9.03025 1.81146 9.17862 1.75 9.33333 1.75ZM4.66667 4.08333H2.91667V5.25H11.0833V4.08333H9.33333H4.66667ZM2.91667 6.41667V11.0833H11.0833V6.41667H2.91667ZM4.08333 7.58333C4.08333 7.42862 4.14479 7.28025 4.25419 7.17085C4.36358 7.06146 4.51196 7 4.66667 7H4.6725C4.82721 7 4.97558 7.06146 5.08498 7.17085C5.19438 7.28025 5.25583 7.42862 5.25583 7.58333C5.25583 7.73804 5.19438 7.88642 5.08498 7.99581C4.97558 8.10521 4.82721 8.16667 4.6725 8.16667H4.66667C4.51196 8.16667 4.36358 8.10521 4.25419 7.99581C4.14479 7.88642 4.08333 7.73804 4.08333 7.58333ZM4.66667 8.75C4.51196 8.75 4.36358 8.81146 4.25419 8.92085C4.14479 9.03025 4.08333 9.17862 4.08333 9.33333C4.08333 9.48804 4.14479 9.63642 4.25419 9.74581C4.36358 9.85521 4.51196 9.91667 4.66667 9.91667H4.6725C4.82721 9.91667 4.97558 9.85521 5.08498 9.74581C5.19438 9.63642 5.25583 9.48804 5.25583 9.33333C5.25583 9.17862 5.19438 9.03025 5.08498 8.92085C4.97558 8.81146 4.82721 8.75 4.6725 8.75H4.66667ZM6.41667 7.58333C6.41667 7.42862 6.47812 7.28025 6.58752 7.17085C6.69692 7.06146 6.84529 7 7 7H7.00583C7.16054 7 7.30892 7.06146 7.41831 7.17085C7.52771 7.28025 7.58917 7.42862 7.58917 7.58333C7.58917 7.73804 7.52771 7.88642 7.41831 7.99581C7.30892 8.10521 7.16054 8.16667 7.00583 8.16667H7C6.84529 8.16667 6.69692 8.10521 6.58752 7.99581C6.47812 7.88642 6.41667 7.73804 6.41667 7.58333ZM7 8.75C6.84529 8.75 6.69692 8.81146 6.58752 8.92085C6.47812 9.03025 6.41667 9.17862 6.41667 9.33333C6.41667 9.48804 6.47812 9.63642 6.58752 9.74581C6.69692 9.85521 6.84529 9.91667 7 9.91667H7.00583C7.16054 9.91667 7.30892 9.85521 7.41831 9.74581C7.52771 9.63642 7.58917 9.48804 7.58917 9.33333C7.58917 9.17862 7.52771 9.03025 7.41831 8.92085C7.30892 8.81146 7.16054 8.75 7.00583 8.75H7ZM8.75 7.58333C8.75 7.42862 8.81146 7.28025 8.92085 7.17085C9.03025 7.06146 9.17862 7 9.33333 7H9.33917C9.49388 7 9.64225 7.06146 9.75165 7.17085C9.86104 7.28025 9.9225 7.42862 9.9225 7.58333C9.9225 7.73804 9.86104 7.88642 9.75165 7.99581C9.64225 8.10521 9.49388 8.16667 9.33917 8.16667H9.33333C9.17862 8.16667 9.03025 8.10521 8.92085 7.99581C8.81146 7.88642 8.75 7.73804 8.75 7.58333ZM9.33333 8.75C9.17862 8.75 9.03025 8.81146 8.92085 8.92085C8.81146 9.03025 8.75 9.17862 8.75 9.33333C8.75 9.48804 8.81146 9.63642 8.92085 9.74581C9.03025 9.85521 9.17862 9.91667 9.33333 9.91667H9.33917C9.49388 9.91667 9.64225 9.85521 9.75165 9.74581C9.86104 9.63642 9.9225 9.48804 9.9225 9.33333C9.9225 9.17862 9.86104 9.03025 9.75165 8.92085C9.64225 8.81146 9.49388 8.75 9.33917 8.75H9.33333Z" fill="#868C98"/>
</g>
<defs>
<clipPath id="clip0_2058_4766">
<rect width="14" height="14" fill="white"/>
</clipPath>
</defs>
</svg>
