<svg width="20" height="20" viewBox="0 0 20 20" fill="none" xmlns="http://www.w3.org/2000/svg">
<path fill-rule="evenodd" clip-rule="evenodd" d="M7.5 1.66675C7.05797 1.66675 6.63405 1.84234 6.32149 2.1549C6.00893 2.46746 5.83333 2.89139 5.83333 3.33341V5.00008H7.5V3.33341H16.6667V12.5001H15V14.1667H16.6667C17.1087 14.1667 17.5326 13.9912 17.8452 13.6786C18.1577 13.366 18.3333 12.9421 18.3333 12.5001V3.33341C18.3333 2.89139 18.1577 2.46746 17.8452 2.1549C17.5326 1.84234 17.1087 1.66675 16.6667 1.66675H7.5ZM3.33333 5.83341C2.89131 5.83341 2.46738 6.00901 2.15482 6.32157C1.84226 6.63413 1.66667 7.05805 1.66667 7.50008V16.6667C1.66667 17.1088 1.84226 17.5327 2.15482 17.8453C2.46738 18.1578 2.89131 18.3334 3.33333 18.3334H12.5C12.942 18.3334 13.366 18.1578 13.6785 17.8453C13.9911 17.5327 14.1667 17.1088 14.1667 16.6667V7.50008C14.1667 7.05805 13.9911 6.63413 13.6785 6.32157C13.366 6.00901 12.942 5.83341 12.5 5.83341H3.33333Z" fill="#4A3FE5"/>
</svg>
