<svg width="82" height="28" viewBox="0 0 82 28" fill="none" xmlns="http://www.w3.org/2000/svg">
<g clip-path="url(#clip0_2106_2669)">
<path d="M28.3848 21.0292V4.12959C28.3848 1.97559 30.1335 0.230225 32.2889 0.230225V8.63613C32.7647 7.87195 33.4254 7.24169 34.2109 6.80073C35.0656 6.33669 36.0266 6.1012 36.9992 6.12198C38.0757 6.08273 39.143 6.35054 40.0763 6.88846C40.9148 7.41253 41.5709 8.18593 41.9544 9.0979C42.3771 10.0606 42.5874 11.2565 42.5897 12.6809V21.0292H38.7063V13.0272C38.7063 11.8729 38.4661 10.9818 37.9833 10.3561C37.5005 9.73047 36.7405 9.4165 35.6985 9.4165C35.0887 9.40953 34.4904 9.56883 33.9636 9.87819C33.4347 10.1991 33.0073 10.6654 32.737 11.2219C32.4228 11.8752 32.2703 12.5932 32.2889 13.3158V21.0292H28.3848Z" fill="black"/>
<path d="M45.121 21.0292V4.12959C45.121 1.97559 46.8698 0.230225 49.0251 0.230225V21.0292H45.121Z" fill="black"/>
<path d="M51.8002 21.0288V10.3697C51.7955 8.21563 53.5397 6.468 55.695 6.46338C55.6974 6.46338 55.6996 6.46338 55.702 6.46338V21.0288H51.8002Z" fill="black"/>
<path d="M56.6865 9.73475C56.6818 7.9317 58.1395 6.468 59.9437 6.46338H66.2157V9.73475H56.6865Z" fill="black"/>
<path d="M59.1689 21.0286V5.17032C59.1689 3.95595 59.3721 2.99323 59.7764 2.27984C60.1691 1.58032 60.7836 1.03086 61.5251 0.721489C62.373 0.377495 63.2832 0.208962 64.198 0.22974H65.9906V3.55193H64.7778C64.161 3.55193 63.7221 3.67198 63.461 3.91209C63.2023 4.1545 63.073 4.57237 63.073 5.17032V21.0286H59.1689Z" fill="black"/>
<path d="M68.8809 27.3847L72.4178 19.4105H71.5399L67.4464 10.3397C66.8203 8.96142 67.4302 7.33379 68.8117 6.70814C69.1697 6.54653 69.5578 6.46112 69.9506 6.46342L74.1088 15.8506L76.8484 9.00993C77.468 7.47463 78.9577 6.46804 80.6144 6.47035H82L73.0114 27.3847H68.8809Z" fill="black"/>
<path d="M53.7514 0.234375C54.8279 0.234375 55.7034 1.10706 55.7034 2.18521V3.48269C55.7034 4.56084 54.8302 5.43352 53.7514 5.43352C52.6749 5.43352 51.8017 4.56084 51.8017 3.48269V2.18521C51.8017 1.10706 52.6749 0.234375 53.7514 0.234375Z" fill="black"/>
<path d="M-0.000170736 10.4763C-0.000170596 13.6655 0.882789 16.2059 2.64871 18.0976C4.41463 19.9895 6.93432 20.9343 10.2078 20.9324H16.3448C19.628 20.9324 22.1535 19.9875 23.9213 18.0976C25.6892 16.2078 26.5634 13.6674 26.544 10.4763C26.544 7.27179 25.663 4.72458 23.9009 2.83475C22.1389 0.944914 19.6134 -1.43254e-07 16.3244 0L10.2049 2.66681e-07C6.92364 4.09633e-07 4.39811 0.944914 2.62831 2.83475C0.858508 4.72458 -0.0176532 7.27179 -0.000170736 10.4763ZM4.30098 10.4763C4.30098 8.68336 4.82357 7.29018 5.86875 6.29686C6.91392 5.30353 8.31166 4.80687 10.0621 4.80687H16.473C18.2214 4.80687 19.6192 5.30353 20.6663 6.29686C21.7134 7.29018 22.238 8.68336 22.2399 10.4763C22.2399 12.2442 21.7174 13.6316 20.6722 14.6384C19.627 15.6453 18.2292 16.1439 16.4789 16.1342H10.0679C8.31948 16.1342 6.92169 15.6317 5.87457 14.6269C4.82745 13.6219 4.30293 12.2384 4.30098 10.4763Z" fill="#4B3FE4"/>
<path d="M16.4935 7.41431C18.2099 7.41431 19.6013 8.80034 19.6013 10.51C19.6013 12.2197 18.2099 13.6057 16.4935 13.6057H14.4266C12.7102 13.6057 11.3188 12.2197 11.3188 10.51C11.3188 8.80034 12.7102 7.41431 14.4266 7.41431H16.4935Z" fill="#4B3FE4"/>
</g>
<defs>
<clipPath id="clip0_2106_2669">
<rect width="82" height="28" fill="white"/>
</clipPath>
</defs>
</svg>
