<svg width="24" height="24" viewBox="0 0 24 24" fill="none" xmlns="http://www.w3.org/2000/svg">
<path d="M23.1428 5.62244V15.1967C23.0655 15.3627 22.9625 15.5144 22.8279 15.6489L17.2121 21.2647C17.0776 21.3992 16.9259 21.5023 16.7599 21.5795H2.00486C1.3723 21.5795 0.857086 21.0672 0.857086 20.4346V5.62244C0.857086 5.58523 0.859948 5.54802 0.862811 5.51082C0.865673 5.47933 0.871398 5.44498 0.877122 5.41636C0.97444 4.88112 1.44099 4.47754 2.002 4.47754H21.995C22.6276 4.47754 23.1399 4.98988 23.1399 5.62244H23.1428Z" fill="url(#paint0_linear_2054_4023)"/>
<path d="M5.26789 2.41895H7.55771C7.87256 2.41895 8.13017 2.67655 8.13017 2.9914V6.53774H4.69543V2.9914C4.69543 2.67655 4.95304 2.41895 5.26789 2.41895Z" fill="#0F7F94"/>
<path d="M16.4394 2.41895H18.7293C19.0441 2.41895 19.3017 2.67655 19.3017 2.9914V6.53774H15.867V2.9914C15.867 2.67655 16.1246 2.41895 16.4394 2.41895Z" fill="#0F7F94"/>
<path d="M2.002 4.49951H21.995C22.6276 4.49951 23.1399 5.01186 23.1399 5.64442V8.6183H0.857086V5.64442C0.857086 5.01186 1.36943 4.49951 2.002 4.49951Z" fill="#5DE0EF"/>
<path d="M23.1428 15.1963C23.0655 15.3623 22.9624 15.514 22.8279 15.6485L17.2121 21.2643C17.0776 21.3988 16.9259 21.5019 16.7599 21.5791V15.1963H23.1428Z" fill="url(#paint1_linear_2054_4023)"/>
<path d="M11.582 13.6903V11.1772H12.4207V13.6903H14.9337V14.529H12.4207V17.042H11.582V14.529H9.06894V13.6903H11.582Z" fill="#0F7F94"/>
<defs>
<linearGradient id="paint0_linear_2054_4023" x1="14.5198" y1="4.47754" x2="10.0725" y2="22.9886" gradientUnits="userSpaceOnUse">
<stop stop-color="#D1F6FA"/>
<stop offset="1" stop-color="#ABEFF7"/>
</linearGradient>
<linearGradient id="paint1_linear_2054_4023" x1="23.8773" y1="21.5791" x2="12.4342" y2="11.8949" gradientUnits="userSpaceOnUse">
<stop stop-color="#5DE0EF"/>
<stop offset="1" stop-color="#0F7F94"/>
</linearGradient>
</defs>
</svg>
