<svg width="24" height="24" viewBox="0 0 24 24" fill="none" xmlns="http://www.w3.org/2000/svg">
<path fill-rule="evenodd" clip-rule="evenodd" d="M10.6712 2.84283C11.0373 2.51725 11.5102 2.3374 12.0002 2.3374C12.4901 2.3374 12.963 2.51725 13.3292 2.84283L17.2632 6.33983L17.5132 4.83583C17.5347 4.70628 17.5815 4.58224 17.651 4.47079C17.7205 4.35935 17.8112 4.26268 17.9181 4.1863C18.0249 4.10992 18.1457 4.05534 18.2737 4.02566C18.4016 3.99598 18.5341 3.99179 18.6637 4.01333C18.7932 4.03486 18.9173 4.0817 19.0287 4.15118C19.1402 4.22065 19.2368 4.3114 19.3132 4.41823C19.3896 4.52506 19.4442 4.6459 19.4738 4.77382C19.5035 4.90175 19.5077 5.03428 19.4862 5.16383L19.0302 7.90983L21.6652 10.2528C21.8533 10.4315 21.9646 10.6764 21.9755 10.9356C21.9865 11.1949 21.8962 11.4483 21.7238 11.6422C21.5515 11.8361 21.3104 11.9555 21.0517 11.975C20.7929 11.9945 20.5367 11.9127 20.3372 11.7468L19.8732 11.3348L19.0862 19.1988C19.0368 19.6925 18.8057 20.1502 18.4378 20.483C18.0698 20.8159 17.5913 21.0001 17.0952 20.9998H6.90517C6.4092 20.9998 5.93093 20.8155 5.56321 20.4827C5.19548 20.1499 4.96452 19.6923 4.91517 19.1988L4.12917 11.3348L3.66417 11.7468C3.46463 11.9127 3.20842 11.9945 2.94967 11.975C2.69092 11.9555 2.44989 11.8361 2.27749 11.6422C2.1051 11.4483 2.01484 11.1949 2.02579 10.9356C2.03674 10.6764 2.14804 10.4315 2.33617 10.2528L10.6712 2.84283Z" fill="#64619C"/>
</svg>
