<svg width="14" height="14" viewBox="0 0 14 14" fill="none" xmlns="http://www.w3.org/2000/svg">
<g clip-path="url(#clip0_2058_4772)">
<path d="M11.0833 7.58317C11.084 7.00249 10.9605 6.42838 10.721 5.89937C10.4816 5.37036 10.1317 4.89869 9.695 4.516C9.63715 4.48267 9.58546 4.43966 9.54217 4.38884C8.82037 3.81231 7.92377 3.49877 7 3.49984C6.03808 3.49984 5.15492 3.83234 4.45667 4.38884C4.44694 4.40128 4.43644 4.41334 4.42517 4.425C4.38921 4.46041 4.34882 4.491 4.305 4.516C3.79212 4.96658 3.4004 5.53855 3.16565 6.17961C2.93091 6.82067 2.86064 7.51035 2.96127 8.18558C3.06191 8.86081 3.33023 9.50003 3.7417 10.0448C4.15317 10.5895 4.69465 11.0224 5.31663 11.3039C5.9386 11.5853 6.62121 11.7063 7.30203 11.6558C7.98285 11.6053 8.64014 11.3849 9.21379 11.0148C9.78743 10.6447 10.2591 10.1367 10.5857 9.53716C10.9123 8.93767 11.0834 8.26586 11.0833 7.58317ZM6.41667 5.24984C6.41667 5.09513 6.47812 4.94675 6.58752 4.83736C6.69692 4.72796 6.84529 4.6665 7 4.6665C7.15471 4.6665 7.30308 4.72796 7.41248 4.83736C7.52187 4.94675 7.58333 5.09513 7.58333 5.24984V7.34167L8.57908 8.33742C8.6348 8.39123 8.67924 8.4556 8.70981 8.52677C8.74038 8.59794 8.75647 8.67448 8.75715 8.75194C8.75782 8.82939 8.74306 8.9062 8.71373 8.97789C8.6844 9.04958 8.64108 9.11471 8.58631 9.16949C8.53154 9.22426 8.46641 9.26757 8.39472 9.2969C8.32303 9.32623 8.24622 9.34099 8.16877 9.34032C8.09131 9.33964 8.01477 9.32355 7.9436 9.29298C7.87243 9.26241 7.80806 9.21797 7.75425 9.16225L6.58758 7.99559C6.47818 7.88622 6.4167 7.73787 6.41667 7.58317V5.24984ZM12.25 7.58317C12.2503 8.43945 12.0412 9.28282 11.6408 10.0397C11.2405 10.7967 10.661 11.4442 9.95306 11.9258C9.24508 12.4075 8.43004 12.7086 7.57898 12.8031C6.72792 12.8975 5.86668 12.7823 5.07033 12.4676C4.27399 12.1529 3.56672 11.6481 3.01017 10.9974C2.45362 10.3466 2.06469 9.56963 1.87728 8.73411C1.68987 7.89859 1.70968 7.02991 1.93497 6.20379C2.16026 5.37768 2.5842 4.61921 3.16983 3.9945L2.90325 3.72792C2.84623 3.67445 2.80054 3.61007 2.76889 3.5386C2.73724 3.46713 2.72028 3.39003 2.71901 3.31188C2.71774 3.23373 2.73219 3.15611 2.76151 3.08365C2.79082 3.01119 2.83439 2.94536 2.88964 2.89007C2.9449 2.83479 3.01069 2.79116 3.08313 2.7618C3.15557 2.73244 3.23317 2.71793 3.31133 2.71914C3.38948 2.72036 3.4666 2.73727 3.53809 2.76887C3.60958 2.80046 3.67399 2.84611 3.7275 2.90309L4.05825 3.23384C4.76204 2.757 5.57163 2.45923 6.41667 2.36642V2.33317H5.83333C5.67862 2.33317 5.53025 2.27171 5.42085 2.16232C5.31146 2.05292 5.25 1.90455 5.25 1.74984C5.25 1.59513 5.31146 1.44675 5.42085 1.33736C5.53025 1.22796 5.67862 1.1665 5.83333 1.1665H8.16667C8.32138 1.1665 8.46975 1.22796 8.57914 1.33736C8.68854 1.44675 8.75 1.59513 8.75 1.74984C8.75 1.90455 8.68854 2.05292 8.57914 2.16232C8.46975 2.27171 8.32138 2.33317 8.16667 2.33317H7.58333V2.36642C8.42796 2.45942 9.23713 2.75718 9.94058 3.23384L10.2719 2.90309C10.3257 2.84737 10.3901 2.80293 10.4613 2.77236C10.5324 2.74179 10.609 2.7257 10.6864 2.72502C10.7639 2.72435 10.8407 2.73911 10.9124 2.76844C10.9841 2.79777 11.0492 2.84109 11.104 2.89586C11.1588 2.95063 11.2021 3.01576 11.2314 3.08745C11.2607 3.15914 11.2755 3.23595 11.2748 3.3134C11.2741 3.39086 11.258 3.4674 11.2275 3.53857C11.1969 3.60974 11.1525 3.67411 11.0968 3.72792L10.8296 3.9945C11.743 4.96602 12.2511 6.24965 12.25 7.58317Z" fill="#868C98"/>
</g>
<defs>
<clipPath id="clip0_2058_4772">
<rect width="14" height="14" fill="white"/>
</clipPath>
</defs>
</svg>
