<svg width="17" height="20" viewBox="0 0 17 20" fill="none" xmlns="http://www.w3.org/2000/svg">
<g clip-path="url(#clip0_2054_4009)">
<path d="M1.81766 3.27641V11.6266C1.81766 12.8423 2.42547 13.9768 3.43849 14.6512L8.18234 17.8148V20L2.42836 16.165C0.911722 15.1548 0 13.4501 0 11.6266V2.54703C0 2.12156 0.295224 1.75109 0.712012 1.65847L8.18234 0V1.86107L1.81766 3.27641Z" fill="url(#paint0_linear_2054_4009)"/>
<path d="M16.3647 2.54703V11.6266C16.3647 13.4501 15.4529 15.1548 13.9363 16.165L8.18231 20V17.8148L12.9262 14.6512C13.9392 13.9768 14.547 12.8423 14.547 11.6266V3.27641L8.18231 1.86107V0L15.6526 1.65847C16.0694 1.75109 16.3647 2.12156 16.3647 2.54703Z" fill="#8BE27C"/>
<path d="M8.18232 1.86182V17.8155L3.43847 14.652C2.42544 13.9776 1.81763 12.843 1.81763 11.6274V3.27716L8.18232 1.86182Z" fill="#C2F2BA"/>
<path d="M14.5471 3.27716V11.6274C14.5471 12.843 13.9392 13.9776 12.9262 14.652L8.18237 17.8155V1.86182L14.5471 3.27716Z" fill="url(#paint1_linear_2054_4009)"/>
<g clip-path="url(#clip1_2054_4009)">
<path fill-rule="evenodd" clip-rule="evenodd" d="M9.42383 11.6713C9.05483 11.6578 8.00907 11.5132 6.91386 10.4183C5.8189 9.32307 5.67464 8.27757 5.6608 7.90831C5.6403 7.34559 6.07131 6.79901 6.5692 6.58555C6.62916 6.55966 6.69482 6.5498 6.75973 6.55695C6.82465 6.56409 6.88659 6.58799 6.93949 6.6263C7.34949 6.92508 7.63239 7.37711 7.87531 7.73253C7.92876 7.81061 7.95161 7.90564 7.93952 7.99949C7.92742 8.09334 7.88121 8.17946 7.80971 8.24144L7.30977 8.61275C7.28561 8.63019 7.26861 8.6558 7.26192 8.68483C7.25523 8.71387 7.2593 8.74434 7.27338 8.7706C7.38664 8.97636 7.58805 9.28284 7.81868 9.51346C8.04956 9.74409 8.37039 9.95883 8.5905 10.0849C8.6181 10.1004 8.65059 10.1047 8.68128 10.097C8.71198 10.0893 8.73855 10.0701 8.75553 10.0434L9.08097 9.54806C9.1408 9.46858 9.22906 9.41534 9.32727 9.39948C9.42548 9.38362 9.52601 9.40638 9.60782 9.46298C9.96836 9.71257 10.3891 9.9906 10.6971 10.385C10.7386 10.4382 10.7649 10.5017 10.7734 10.5686C10.7819 10.6356 10.7723 10.7036 10.7456 10.7655C10.5311 11.266 9.98835 11.6921 9.42383 11.6713Z" fill="#46803D"/>
</g>
</g>
<defs>
<linearGradient id="paint0_linear_2054_4009" x1="6.96124" y1="-1.47672" x2="1.42851" y2="15.1215" gradientUnits="userSpaceOnUse">
<stop stop-color="#6DB861"/>
<stop offset="1" stop-color="#55A249"/>
</linearGradient>
<linearGradient id="paint1_linear_2054_4009" x1="13.621" y1="1.86182" x2="6.96127" y2="17.8155" gradientUnits="userSpaceOnUse">
<stop stop-color="#EDFAEA"/>
<stop offset="1" stop-color="#D5F3CE"/>
</linearGradient>
<clipPath id="clip0_2054_4009">
<rect width="16.3647" height="20" fill="white"/>
</clipPath>
<clipPath id="clip1_2054_4009">
<rect width="6.15" height="6.15" fill="white" transform="translate(5.18237 6)"/>
</clipPath>
</defs>
</svg>
